
<svg width="725px" height="90px" viewBox="167 686 725 90" version="1.1" xmlns="http://www.w3.org/2000/svg" xmlns:xlink="http://www.w3.org/1999/xlink">
    <!-- Generator: Sketch 39.1 (31720) - http://www.bohemiancoding.com/sketch -->
    <desc>Created with Sketch.</desc>
    <defs></defs>
    <g id="original-outlined" stroke="none" stroke-width="1" fill="none" fill-rule="evenodd" transform="translate(167.000000, 686.000000)">
        <path d="M10,76.1601562 C13.4375172,82.0976859 18.730433,85.0664062 25.8789062,85.0664062 C30.3320535,85.0664062 33.8476434,84.0312604 36.4257812,81.9609375 C39.0039191,79.8906146 40.2929688,77.0195496 40.2929688,73.3476562 C40.2929688,70.1835779 39.5800853,67.3418095 38.1542969,64.8222656 C36.7285085,62.3027218 34.8046996,59.9980573 32.3828125,57.9082031 C29.9609254,55.8183489 26.7578324,53.4453258 22.7734375,50.7890625 C17.9296633,47.5468588 14.091811,44.7343869 11.2597656,42.3515625 C8.42772021,39.9687381 6.08399365,37.1855628 4.22851562,34.0019531 C2.3730376,30.8183435 1.4453125,27.1562707 1.4453125,23.015625 C1.4453125,18.0156 2.8027208,13.8066577 5.51757812,10.3886719 C8.23243545,6.97068604 11.835915,4.44141445 16.328125,2.80078125 C20.820335,1.16014805 25.7616918,0.33984375 31.1523438,0.33984375 C35.7617418,0.33984375 39.4921732,0.769526953 42.34375,1.62890625 C45.1953268,2.48828555 47.9492055,3.66014883 50.6054688,5.14453125 C51.7382869,5.76953438 52.5781223,6.20898311 53.125,6.46289063 C53.6718777,6.71679814 54.1992162,6.84375 54.7070312,6.84375 C55.4492225,6.84375 56.015623,6.42383232 56.40625,5.58398438 C56.796877,4.74413643 57.1093738,3.40625918 57.34375,1.5703125 L60.0976562,1.5703125 C59.7070293,7.31252871 59.5117188,17.0780561 59.5117188,30.8671875 L56.7578125,30.8671875 C56.4453109,26.2968521 55.4003995,21.9218959 53.6230469,17.7421875 C51.8456942,13.5624791 49.433609,10.1640756 46.3867188,7.546875 C43.3398285,4.92967441 39.8242387,3.62109375 35.8398438,3.62109375 C32.2070131,3.62109375 29.2578238,4.59764648 26.9921875,6.55078125 C24.7265512,8.50391602 23.59375,11.2382637 23.59375,14.7539062 C23.59375,17.6445457 24.2675714,20.1249896 25.6152344,22.1953125 C26.9628974,24.2656354 28.8183476,26.2187408 31.1816406,28.0546875 C33.5449337,29.8906342 38.0663729,33.1327893 44.7460938,37.78125 C49.1601783,40.8672029 52.6757682,43.572254 55.2929688,45.8964844 C57.9101693,48.2207147 60.0488198,50.9452969 61.7089844,54.0703125 C63.3691489,57.1953281 64.1992188,60.8085732 64.1992188,64.9101562 C64.1992188,70.1054947 62.7343896,74.4902165 59.8046875,78.0644531 C56.8749854,81.6386897 52.9492434,84.3046787 48.0273438,86.0625 C43.1054441,87.8203213 37.6172178,88.6992188 31.5625,88.6992188 C26.6406004,88.6992188 22.5683755,88.2988321 19.3457031,87.4980469 C16.1230308,86.6972616 13.1054828,85.6132881 10.2929688,84.2460938 C8.49608477,83.1132756 7.14844199,82.546875 6.25,82.546875 C5.50780879,82.546875 4.9414082,82.9570271 4.55078125,83.7773438 C4.1601543,84.5976604 3.82812637,85.9453031 3.5546875,87.8203125 L0.80078125,87.8203125 C1.15234551,81.726532 1.328125,70.1250855 1.328125,53.015625 L4.08203125,53.015625 C4.58984629,62.50786 6.56248281,70.2226266 10,76.1601562 L10,76.1601562 Z M137.929688,7.01953125 C136.757807,8.19141211 135.966799,9.97850361 135.556641,12.3808594 C135.146482,14.7832151 134.941406,18.3671637 134.941406,23.1328125 L134.941406,87 C133.769525,86.8828119 132.460945,86.8242188 131.015625,86.8242188 C129.609368,86.8242188 128.105477,86.8828119 126.503906,87 L73.359375,28.9335938 L73.359375,63.5039062 C73.359375,69.4023732 73.5937477,73.6406121 74.0625,76.21875 C74.5312523,78.7968879 75.5859293,80.7011657 77.2265625,81.9316406 C78.8671957,83.1621155 81.6210744,84.0507785 85.4882812,84.5976562 L85.4882812,87 C82.2851402,86.7656238 77.7929977,86.6484375 72.0117188,86.6484375 C67.7929477,86.6484375 64.4726684,86.7656238 62.0507812,87 L62.0507812,84.5976562 C64.5507937,84.0507785 66.3964784,83.1914121 67.5878906,82.0195312 C68.7793028,80.8476504 69.5800761,79.0605589 69.9902344,76.6582031 C70.4003927,74.2558474 70.6054688,70.6718988 70.6054688,65.90625 L70.6054688,14.7539062 C70.6054688,11.7460787 70.3906271,9.55860059 69.9609375,8.19140625 C69.5312479,6.82421191 68.7402401,5.88672129 67.5878906,5.37890625 C66.4355411,4.87109121 64.5898564,4.55859434 62.0507812,4.44140625 L62.0507812,2.0390625 C64.4726684,2.27343867 67.7929477,2.390625 72.0117188,2.390625 C76.4258033,2.390625 80.1171727,2.27343867 83.0859375,2.0390625 L132.128906,53.8945312 L132.128906,25.5351562 C132.128906,19.6366893 131.894534,15.3984504 131.425781,12.8203125 C130.957029,10.2421746 129.912117,8.33789678 128.291016,7.10742188 C126.669914,5.87694697 123.925801,4.98828398 120.058594,4.44140625 L120.058594,2.0390625 C123.300797,2.27343867 127.773409,2.390625 133.476562,2.390625 C137.734396,2.390625 141.054676,2.27343867 143.4375,2.0390625 L143.4375,4.44140625 C140.937488,4.98828398 139.101568,5.84765039 137.929688,7.01953125 L137.929688,7.01953125 Z M208.964844,5.49609375 C215.761753,8.93361094 221.035137,13.9237954 224.785156,20.4667969 C228.535175,27.0097983 230.410156,34.7929236 230.410156,43.8164062 C230.410156,52.6445754 228.486347,60.4569973 224.638672,67.2539062 C220.790996,74.0508152 215.429722,79.3242 208.554688,83.0742188 C201.679653,86.8242375 193.8477,88.6992188 185.058594,88.6992188 C175.996048,88.6992188 168.06644,86.9804859 161.269531,83.5429688 C154.472622,80.1054516 149.199238,75.1152671 145.449219,68.5722656 C141.6992,62.0292642 139.824219,54.2461389 139.824219,45.2226562 C139.824219,36.3944871 141.748028,28.5820652 145.595703,21.7851562 C149.443379,14.9882473 154.794888,9.7148625 161.650391,5.96484375 C168.505894,2.214825 176.347612,0.33984375 185.175781,0.33984375 C194.238327,0.33984375 202.167935,2.05857656 208.964844,5.49609375 L208.964844,5.49609375 Z M174.335938,7.86914062 C171.367173,11.4433772 169.072274,16.4237962 167.451172,22.8105469 C165.83007,29.1972976 165.019531,36.5116775 165.019531,44.7539062 C165.019531,53.0351977 165.937491,60.3495776 167.773438,66.6972656 C169.609384,73.0449536 172.089828,77.9374828 175.214844,81.375 C178.339859,84.8125172 181.777325,86.53125 185.527344,86.53125 C189.472676,86.53125 192.929673,84.7441585 195.898438,81.1699219 C198.867202,77.5956853 201.162101,72.6152663 202.783203,66.2285156 C204.404305,59.8417649 205.214844,52.527385 205.214844,44.2851562 C205.214844,36.0038648 204.296884,28.6894849 202.460938,22.3417969 C200.624991,15.9941089 198.144547,11.1015797 195.019531,7.6640625 C191.894516,4.22654531 188.45705,2.5078125 184.707031,2.5078125 C180.761699,2.5078125 177.304702,4.294904 174.335938,7.86914062 L174.335938,7.86914062 Z M337.714844,2.390625 C341.503925,2.390625 344.589832,2.27343867 346.972656,2.0390625 L346.972656,4.44140625 C342.24607,6.74610527 338.515639,12.351518 335.78125,21.2578125 L315.625,87 C313.124987,86.8437492 311.015634,86.765625 309.296875,86.765625 C307.695304,86.765625 305.605482,86.8437492 303.027344,87 L287.441406,39.3632812 L270.507812,87 C268.0078,86.8437492 265.898446,86.765625 264.179688,86.765625 C262.578117,86.765625 260.488294,86.8437492 257.910156,87 L230.078125,12.1171875 C229.14062,9.5781123 228.02735,7.6836 226.738281,6.43359375 C225.449212,5.1835875 224.199225,4.51953164 222.988281,4.44140625 L222.988281,2.0390625 C228.808623,2.27343867 235.898396,2.390625 244.257812,2.390625 C251.562537,2.390625 256.874983,2.27343867 260.195312,2.0390625 L260.195312,4.44140625 C258.085927,4.8710959 257.03125,6.47264238 257.03125,9.24609375 C257.03125,11.0429777 257.363278,12.8007727 258.027344,14.5195312 L275.488281,63.4453125 L285.976562,34.96875 L277.832031,10.0664062 C277.207028,8.11327148 276.406255,6.71680107 275.429688,5.87695312 C274.45312,5.03710518 273.222664,4.55859434 271.738281,4.44140625 L271.738281,2.0390625 C277.128933,2.27343867 284.042927,2.390625 292.480469,2.390625 C300.800823,2.390625 307.011698,2.27343867 311.113281,2.0390625 L311.113281,4.44140625 C308.183579,4.51953164 306.083991,4.87109062 304.814453,5.49609375 C303.544916,6.12109688 302.910156,7.29296016 302.910156,9.01171875 C302.910156,10.3398504 303.320308,12.1757695 304.140625,14.5195312 L319.960938,62.625 L329.21875,32.9765625 C331.328136,26.0624654 332.382812,20.4765838 332.382812,16.21875 C332.382812,12.1952924 331.49415,9.25586865 329.716797,7.40039063 C327.939444,5.5449126 325.371111,4.55859434 322.011719,4.44140625 L322.011719,2.0390625 C327.988311,2.27343867 333.222634,2.390625 337.714844,2.390625 L337.714844,2.390625 Z" id="SNOW" fill="#616161"></path>
        <path d="M378.34082,64.9814453 C381.229507,66.165696 383.33235,67.6266189 384.649414,69.3642578 C385.966478,71.1018967 386.625,72.9557193 386.625,74.9257812 C386.625,79.3528867 384.848651,82.6565646 381.295898,84.8369141 C377.743146,87.0172635 372.712923,88.1074219 366.205078,88.1074219 C365.25325,88.1074219 363.570976,88.0742191 361.158203,88.0078125 C358.745431,87.9414059 356.310559,87.9082031 353.853516,87.9082031 C348.540989,87.9082031 344.589857,87.9746087 342,88.1074219 L342,86.7460938 C343.460945,86.6796872 344.5179,86.5026056 345.170898,86.2148438 C345.823896,85.9270819 346.2666,85.3958372 346.499023,84.6210938 C346.731446,83.8463503 346.847656,82.6067794 346.847656,80.9023438 L346.847656,47.1679688 C346.847656,45.4635331 346.725913,44.2239622 346.482422,43.4492188 C346.238931,42.6744753 345.790693,42.1432306 345.137695,41.8554688 C344.484697,41.5677069 343.438809,41.3906253 342,41.3242188 L342,39.9628906 C344.589857,40.0957038 348.496719,40.1621094 353.720703,40.1621094 C355.580087,40.1621094 357.649728,40.1399742 359.929688,40.0957031 C362.209647,40.0514321 363.781246,40.0292969 364.644531,40.0292969 C368.673197,40.0292969 372.065416,40.4775346 374.821289,41.3740234 C377.577162,42.2705123 379.641269,43.5211508 381.013672,45.1259766 C382.386075,46.7308023 383.072266,48.5956925 383.072266,50.7207031 C383.072266,52.4030032 382.491217,54.085278 381.329102,55.7675781 C380.166986,57.4498782 378.401705,58.9274025 376.033203,60.2001953 C373.664702,61.4729881 370.776059,62.3196594 367.367188,62.7402344 L367.367188,62.8730469 C371.794293,63.0944021 375.452134,63.7971946 378.34082,64.9814453 L378.34082,64.9814453 Z M367.616211,59.5361328 C368.579106,57.5328676 369.060547,54.8379076 369.060547,51.4511719 C369.060547,48.0201651 368.695316,45.4746177 367.964844,43.8144531 C367.234371,42.1542886 366.016936,41.3242188 364.3125,41.3242188 C363.27213,41.3242188 362.491865,41.4846989 361.97168,41.8056641 C361.451495,42.1266292 361.097332,42.6966105 360.90918,43.515625 C360.721028,44.3346395 360.626953,45.5520753 360.626953,47.1679688 L360.626953,62.5410156 L362.486328,62.5410156 C364.943372,62.5410156 366.653315,61.539398 367.616211,59.5361328 L367.616211,59.5361328 Z M360.975586,84.5214844 C361.208009,85.2962278 361.628578,85.8274725 362.237305,86.1152344 C362.846032,86.4029962 363.792311,86.546875 365.076172,86.546875 C369.923852,86.546875 372.347656,82.5736074 372.347656,74.6269531 C372.347656,71.0631332 371.489917,68.3515718 369.774414,66.4921875 C368.058911,64.6328032 365.330748,63.703125 361.589844,63.703125 L360.626953,63.703125 L360.626953,80.9023438 C360.626953,82.5403728 360.743163,83.7467409 360.975586,84.5214844 L360.975586,84.5214844 Z M430.623047,41.921875 C434.474629,43.8698014 437.46288,46.6975726 439.587891,50.4052734 C441.712901,54.1129743 442.775391,58.5234119 442.775391,63.6367188 C442.775391,68.6393479 441.685232,73.066387 439.504883,76.9179688 C437.324533,80.7695505 434.286478,83.7578019 430.390625,85.8828125 C426.494772,88.0078231 422.056666,89.0703125 417.076172,89.0703125 C411.94073,89.0703125 407.447285,88.0963639 403.595703,86.1484375 C399.744121,84.2005111 396.75587,81.3727399 394.630859,77.6650391 C392.505849,73.9573382 391.443359,69.5469006 391.443359,64.4335938 C391.443359,59.4309646 392.533518,55.0039255 394.713867,51.1523438 C396.894217,47.300762 399.926738,44.3125106 403.811523,42.1875 C407.696308,40.0624894 412.139949,39 417.142578,39 C422.27802,39 426.771465,39.9739486 430.623047,41.921875 L430.623047,41.921875 Z M411,43.2666016 C409.3177,45.2920023 408.017257,48.1142397 407.098633,51.7333984 C406.180008,55.3525572 405.720703,59.4973725 405.720703,64.1679688 C405.720703,68.8607005 406.24088,73.0055159 407.28125,76.6025391 C408.32162,80.1995623 409.727205,82.9719955 411.498047,84.9199219 C413.268889,86.8678483 415.216786,87.8417969 417.341797,87.8417969 C419.577485,87.8417969 421.53645,86.8291117 423.21875,84.8037109 C424.90105,82.7783102 426.201493,79.9560728 427.120117,76.3369141 C428.038742,72.7177553 428.498047,68.57294 428.498047,63.9023438 C428.498047,59.209612 427.97787,55.0647966 426.9375,51.4677734 C425.89713,47.8707502 424.491545,45.098317 422.720703,43.1503906 C420.949861,41.2024642 419.001964,40.2285156 416.876953,40.2285156 C414.641265,40.2285156 412.6823,41.2412008 411,43.2666016 L411,43.2666016 Z M487.628906,85.6337891 C488.337243,86.3310582 489.034502,86.7018227 489.720703,86.7460938 L489.720703,88.1074219 C486.444645,87.9746087 482.316431,87.9082031 477.335938,87.9082031 C472.156224,87.9082031 468.348971,87.9746087 465.914062,88.1074219 L465.914062,86.7460938 C467.618498,86.6796872 468.841468,86.4694028 469.583008,86.1152344 C470.324548,85.7610659 470.695312,85.1412805 470.695312,84.2558594 C470.695312,83.569658 470.418623,82.4961011 469.865234,81.0351562 L465.814453,69.8789062 L452.101562,69.8789062 L450.939453,72.9335938 C449.478508,76.7409045 448.748047,79.695953 448.748047,81.7988281 C448.748047,83.6582124 449.26269,84.9309862 450.291992,85.6171875 C451.321294,86.3033888 452.854156,86.6796872 454.890625,86.7460938 L454.890625,88.1074219 C451.503889,87.9746087 448.537773,87.9082031 445.992188,87.9082031 C443.845041,87.9082031 442.096361,87.9746087 440.746094,88.1074219 L440.746094,86.7460938 C441.85287,86.5690095 442.909826,85.8717509 443.916992,84.6542969 C444.924159,83.4368429 445.947911,81.4778781 446.988281,78.7773438 L462.095703,39.9628906 C463.069666,40.0514327 464.264967,40.0957031 465.681641,40.0957031 C467.098314,40.0957031 468.282547,40.0514327 469.234375,39.9628906 L485.703125,82.3964844 C486.278649,83.8574292 486.920569,84.93652 487.628906,85.6337891 L487.628906,85.6337891 Z M459.173828,51.5175781 L452.632812,68.5175781 L465.349609,68.5175781 L459.173828,51.5175781 Z M537.080078,88.2402344 C535.442049,88.7936226 533.538422,89.0703125 531.369141,89.0703125 C528.248031,89.0703125 525.818694,88.5113988 524.081055,87.3935547 C522.343416,86.2757106 521.275393,84.3776176 520.876953,81.6992188 L519.847656,74.9257812 C519.38281,71.7382653 518.763025,69.3310628 517.988281,67.7041016 C517.213538,66.0771403 516.029305,65.2636719 514.435547,65.2636719 L511.347656,65.2636719 L511.347656,80.9023438 C511.347656,82.6067794 511.4694,83.8463503 511.712891,84.6210938 C511.956381,85.3958372 512.404619,85.9270819 513.057617,86.2148438 C513.710615,86.5026056 514.756503,86.6796872 516.195312,86.7460938 L516.195312,88.1074219 C513.539049,87.9746087 509.753931,87.9082031 504.839844,87.9082031 C499.350233,87.9082031 495.31056,87.9746087 492.720703,88.1074219 L492.720703,86.7460938 C494.181648,86.6796872 495.238604,86.5026056 495.891602,86.2148438 C496.5446,85.9270819 496.987304,85.3958372 497.219727,84.6210938 C497.45215,83.8463503 497.568359,82.6067794 497.568359,80.9023438 L497.568359,47.1679688 C497.568359,45.4635331 497.446616,44.2239622 497.203125,43.4492188 C496.959634,42.6744753 496.511396,42.1432306 495.858398,41.8554688 C495.2054,41.5677069 494.159512,41.3906253 492.720703,41.3242188 L492.720703,39.9628906 C495.31056,40.0957038 499.217422,40.1621094 504.441406,40.1621094 C506.300791,40.1621094 508.370431,40.1399742 510.650391,40.0957031 C512.93035,40.0514321 514.501949,40.0292969 515.365234,40.0292969 C522.271519,40.0292969 527.412418,40.9977117 530.788086,42.9345703 C534.163754,44.871429 535.851562,47.8430789 535.851562,51.8496094 C535.851562,55.2584806 534.578789,58.163725 532.033203,60.5654297 C529.487617,62.9671344 525.215525,64.4557263 519.216797,65.03125 C523.843122,65.2968763 527.346017,66.1435475 529.725586,67.5712891 C532.105155,68.9990306 533.560544,71.1074079 534.091797,73.8964844 L535.519531,80.96875 C535.851564,82.6289146 536.244464,83.7799447 536.698242,84.421875 C537.15202,85.0638053 537.77734,85.3847656 538.574219,85.3847656 C539.393233,85.3847656 540.090492,85.0859405 540.666016,84.4882812 L541.5625,85.3847656 C540.212233,86.7350328 538.718107,87.6868462 537.080078,88.2402344 L537.080078,88.2402344 Z M518.370117,62.4414062 C519.598639,61.467443 520.439776,60.1614665 520.893555,58.5234375 C521.347333,56.8854085 521.574219,54.9153761 521.574219,52.6132812 C521.574219,48.8945127 521.065109,46.0833429 520.046875,44.1796875 C519.028641,42.2760321 517.357433,41.3242188 515.033203,41.3242188 C513.992833,41.3242188 513.212568,41.4846989 512.692383,41.8056641 C512.172198,42.1266292 511.818035,42.6966105 511.629883,43.515625 C511.441731,44.3346395 511.347656,45.5520753 511.347656,47.1679688 L511.347656,63.9023438 L513.207031,63.9023438 C515.420584,63.9023438 517.141595,63.4153695 518.370117,62.4414062 L518.370117,62.4414062 Z M554.058594,40.1953125 L556.482422,40.1621094 C563.12308,40.0292962 566.76432,39.9628906 567.40625,39.9628906 C576.813849,39.9628906 583.847307,41.9661258 588.506836,45.9726562 C593.166364,49.9791867 595.496094,55.8228783 595.496094,63.5039062 C595.496094,68.4401288 594.356131,72.7620257 592.076172,76.4697266 C589.796213,80.1774274 586.503602,83.0439352 582.198242,85.0693359 C577.892882,87.0947367 572.763051,88.1074219 566.808594,88.1074219 C566.144528,88.1074219 564.561861,88.0742191 562.060547,88.0078125 C559.559232,87.9414059 557.744146,87.9082031 556.615234,87.9082031 C551.302708,87.9082031 547.351575,87.9746087 544.761719,88.1074219 L544.761719,86.7460938 C546.222664,86.6796872 547.279619,86.5026056 547.932617,86.2148438 C548.585615,85.9270819 549.028319,85.3958372 549.260742,84.6210938 C549.493165,83.8463503 549.609375,82.6067794 549.609375,80.9023438 L549.609375,47.1679688 C549.609375,45.4635331 549.487631,44.2239622 549.244141,43.4492188 C549.00065,42.6744753 548.552412,42.1432306 547.899414,41.8554688 C547.246416,41.5677069 546.200528,41.3906253 544.761719,41.3242188 L544.761719,39.9628906 C548.059912,40.1178393 551.15884,40.1953125 554.058594,40.1953125 L554.058594,40.1953125 Z M563.787109,84.7041016 C564.052736,85.5120483 564.545244,86.0764958 565.264648,86.3974609 C565.984053,86.7184261 567.063144,86.8789062 568.501953,86.8789062 C572.995465,86.8789062 576.238271,84.9420767 578.230469,81.0683594 C580.222666,77.1946421 581.21875,71.4284237 581.21875,63.7695312 C581.21875,56.0885033 580.189463,50.4052919 578.130859,46.7197266 C576.072255,43.0341613 572.840517,41.1914062 568.435547,41.1914062 C567.018873,41.1914062 565.956384,41.3518864 565.248047,41.6728516 C564.53971,41.9938167 564.052736,42.563798 563.787109,43.3828125 C563.521483,44.201827 563.388672,45.4192628 563.388672,47.0351562 L563.388672,81.0351562 C563.388672,82.6731853 563.521483,83.8961548 563.787109,84.7041016 L563.787109,84.7041016 Z M620.21582,41.8554688 C619.562822,42.1432306 619.120118,42.6744753 618.887695,43.4492188 C618.655272,44.2239622 618.539062,45.4635331 618.539062,47.1679688 L618.539062,80.9023438 C618.539062,82.6067794 618.660806,83.8463503 618.904297,84.6210938 C619.147788,85.3958372 619.596025,85.9270819 620.249023,86.2148438 C620.902021,86.5026056 621.947909,86.6796872 623.386719,86.7460938 L623.386719,88.1074219 C620.730455,87.9746087 616.945337,87.9082031 612.03125,87.9082031 C606.541639,87.9082031 602.501966,87.9746087 599.912109,88.1074219 L599.912109,86.7460938 C601.373054,86.6796872 602.43001,86.5026056 603.083008,86.2148438 C603.736006,85.9270819 604.17871,85.3958372 604.411133,84.6210938 C604.643556,83.8463503 604.759766,82.6067794 604.759766,80.9023438 L604.759766,47.1679688 C604.759766,45.4635331 604.638022,44.2239622 604.394531,43.4492188 C604.15104,42.6744753 603.702803,42.1432306 603.049805,41.8554688 C602.396807,41.5677069 601.350919,41.3906253 599.912109,41.3242188 L599.912109,39.9628906 C602.501966,40.0957038 606.541639,40.1621094 612.03125,40.1621094 C616.945337,40.1621094 620.730455,40.0957038 623.386719,39.9628906 L623.386719,41.3242188 C621.925774,41.3906253 620.868818,41.5677069 620.21582,41.8554688 L620.21582,41.8554688 Z M670.302734,42.7851562 C669.638669,43.4492221 669.190431,44.4619073 668.958008,45.8232422 C668.725585,47.1845771 668.609375,49.2154813 668.609375,51.9160156 L668.609375,88.1074219 C667.945309,88.0410153 667.20378,88.0078125 666.384766,88.0078125 C665.587887,88.0078125 664.735682,88.0410153 663.828125,88.1074219 L633.712891,55.203125 L633.712891,74.7929688 C633.712891,78.1354334 633.845702,80.5371021 634.111328,81.9980469 C634.376954,83.4589917 634.974605,84.5380825 635.904297,85.2353516 C636.833989,85.9326207 638.39452,86.4361964 640.585938,86.7460938 L640.585938,88.1074219 C638.770824,87.9746087 636.225277,87.9082031 632.949219,87.9082031 C630.558582,87.9082031 628.67709,87.9746087 627.304688,88.1074219 L627.304688,86.7460938 C628.721361,86.4361964 629.767249,85.9492221 630.442383,85.2851562 C631.117516,84.6210904 631.571288,83.6084052 631.803711,82.2470703 C632.036134,80.8857354 632.152344,78.8548312 632.152344,76.1542969 L632.152344,47.1679688 C632.152344,45.4635331 632.0306,44.2239622 631.787109,43.4492188 C631.543619,42.6744753 631.095381,42.1432306 630.442383,41.8554688 C629.789385,41.5677069 628.743497,41.3906253 627.304688,41.3242188 L627.304688,39.9628906 C628.67709,40.0957038 630.558582,40.1621094 632.949219,40.1621094 C635.450533,40.1621094 637.542309,40.0957038 639.224609,39.9628906 L667.015625,69.3476562 L667.015625,53.2773438 C667.015625,49.9348791 666.882814,47.5332104 666.617188,46.0722656 C666.351561,44.6113208 665.759445,43.53223 664.84082,42.8349609 C663.922196,42.1376918 662.367198,41.6341161 660.175781,41.3242188 L660.175781,39.9628906 C662.01303,40.0957038 664.54751,40.1621094 667.779297,40.1621094 C670.192069,40.1621094 672.073561,40.0957038 673.423828,39.9628906 L673.423828,41.3242188 C672.007154,41.6341161 670.9668,42.1210904 670.302734,42.7851562 L670.302734,42.7851562 Z M718.688477,85.4511719 C718.32324,84.6321574 717.819665,84.2226562 717.177734,84.2226562 C716.225907,84.2226562 714.687511,84.7428333 712.5625,85.7832031 C708.046852,87.9746203 704.217464,89.0703125 701.074219,89.0703125 C695.451795,89.0703125 690.736998,88.1018977 686.929688,86.1650391 C683.122377,84.2281804 680.266937,81.4225444 678.363281,77.7480469 C676.459626,74.0735493 675.507812,69.6354427 675.507812,64.4335938 C675.507812,59.4309646 676.62564,55.0039255 678.861328,51.1523438 C681.097016,47.300762 684.212545,44.3125106 688.208008,42.1875 C692.20347,40.0624894 696.757787,39 701.871094,39 C704.792983,39 707.288727,39.3873659 709.358398,40.1621094 C711.42807,40.9368528 713.337231,42.0214774 715.085938,43.4160156 C715.528648,43.8365906 715.98242,44.046875 716.447266,44.046875 C716.912112,44.046875 717.277342,43.7203809 717.542969,43.0673828 C717.808595,42.4143848 718.007812,41.3795644 718.140625,39.9628906 L719.701172,39.9628906 C719.524088,43.1725421 719.435547,48.8391521 719.435547,56.9628906 L717.875,56.9628906 C717.653645,54.5943892 717.332684,52.591154 716.912109,50.953125 C716.491534,49.315096 715.860681,47.8541731 715.019531,46.5703125 C714.178381,45.2864519 713.038419,44.1464894 711.599609,43.1503906 C710.669917,42.5084603 709.574225,42.0104184 708.3125,41.65625 C707.050775,41.3020816 705.811204,41.125 704.59375,41.125 C701.339827,41.125 698.705739,42.2704964 696.691406,44.5615234 C694.677073,46.8525505 693.249353,49.7411935 692.408203,53.2275391 C691.567053,56.7138846 691.146484,60.360658 691.146484,64.1679688 C691.146484,72.070352 692.114899,77.9693816 694.051758,81.8652344 C695.988616,85.7610872 698.661441,87.7089844 702.070312,87.7089844 C703.486986,87.7089844 704.604814,87.4322944 705.423828,86.8789062 C706.375656,86.2148404 706.851562,85.0859455 706.851562,83.4921875 L706.851562,76.6855469 C706.851562,74.4055876 706.674481,72.7399141 706.320312,71.6884766 C705.966144,70.637039 705.324223,69.9121114 704.394531,69.5136719 C703.464839,69.1152324 701.992849,68.8717452 699.978516,68.7832031 L699.978516,67.421875 C702.833999,67.5768237 707.161429,67.6542969 712.960938,67.6542969 C717.786482,67.6542969 721.283843,67.5768237 723.453125,67.421875 L723.453125,68.7832031 C722.611975,68.8717452 722.008791,69.0543606 721.643555,69.3310547 C721.278318,69.6077488 721.023764,70.1334597 720.879883,70.9082031 C720.736002,71.6829466 720.664062,72.9225175 720.664062,74.6269531 L720.664062,88.1074219 L719.302734,88.1074219 C719.258463,87.1555942 719.053713,86.2701864 718.688477,85.4511719 L718.688477,85.4511719 Z" id="BOARDING" fill="#616161"></path>
        <path d="M363.847656,12.6835938 L363.847656,13.484375 L359.121094,13.484375 L359.121094,29.6171875 C359.121094,30.4114623 359.264321,30.9746077 359.550781,31.3066406 C359.837241,31.6386735 360.279945,31.8046875 360.878906,31.8046875 C362.011724,31.8046875 362.916663,31.0039143 363.59375,29.4023438 L364.277344,29.7734375 C363.274735,32.5208471 361.451836,33.8945312 358.808594,33.8945312 C357.050772,33.8945312 355.71615,33.4388066 354.804688,32.5273438 C354.244789,31.980466 353.863933,31.2871136 353.662109,30.4472656 C353.460285,29.6074177 353.359375,28.4453199 353.359375,26.9609375 L353.359375,13.484375 L350,13.484375 L350,12.6835938 L353.359375,12.6835938 L353.359375,7.37109375 C355.559907,7.37109375 357.480461,6.94141055 359.121094,6.08203125 L359.121094,12.6835938 L363.847656,12.6835938 Z M393.576172,13.1621094 C394.533208,12.4524704 395.617181,12.0976562 396.828125,12.0976562 C397.635421,12.0976562 398.312497,12.2734357 398.859375,12.625 C399.406253,12.9765643 399.809895,13.4290337 400.070312,13.9824219 C400.33073,14.5358101 400.460938,15.1315072 400.460938,15.7695312 C400.460938,16.7591195 400.174482,17.5664031 399.601562,18.1914062 C399.028643,18.8164094 398.273442,19.1289062 397.335938,19.1289062 C396.424475,19.1289062 395.705081,18.8977888 395.177734,18.4355469 C394.650388,17.973305 394.386719,17.3515664 394.386719,16.5703125 C394.386719,15.2942645 394.97265,14.2526082 396.144531,13.4453125 C395.97526,13.4062498 395.812501,13.3867188 395.65625,13.3867188 C395.473957,13.3867188 395.265626,13.4192705 395.03125,13.484375 C394.354163,13.5885422 393.73568,13.9108046 393.175781,14.4511719 C392.615883,14.9915392 392.176434,15.6393191 391.857422,16.3945312 C391.53841,17.1497434 391.378906,17.8854131 391.378906,18.6015625 L391.378906,29.2070312 C391.378906,30.4440166 391.678382,31.3001278 392.277344,31.7753906 C392.876305,32.2506534 393.833327,32.4882812 395.148438,32.4882812 L395.148438,33.328125 C391.815088,33.2239578 389.692713,33.171875 388.78125,33.171875 C387.934892,33.171875 386.027359,33.2239578 383.058594,33.328125 L383.058594,32.4882812 C383.696618,32.4882812 384.20117,32.4036467 384.572266,32.234375 C384.943361,32.0651033 385.210286,31.7721375 385.373047,31.3554688 C385.535808,30.9388 385.617188,30.3593787 385.617188,29.6171875 L385.617188,17 C385.617188,15.7630146 385.428387,14.8678413 385.050781,14.3144531 C384.673175,13.7610649 384.009119,13.484375 383.058594,13.484375 L383.058594,12.6445312 C383.904952,12.7226566 384.731767,12.7617188 385.539062,12.7617188 C387.895845,12.7617188 389.84244,12.5794289 391.378906,12.2148438 L391.378906,15.9257812 C391.886721,14.7929631 392.619136,13.8717483 393.576172,13.1621094 L393.576172,13.1621094 Z M430.013672,13.8359375 C429.486325,13.1979135 428.662766,12.8789062 427.542969,12.8789062 C427.022133,12.8789062 426.501305,12.9602856 425.980469,13.1230469 C425.459633,13.2858081 425.02995,13.5299463 424.691406,13.8554688 C425.433597,14.1028658 426.013019,14.4902317 426.429688,15.0175781 C426.846356,15.5449245 427.054688,16.2057252 427.054688,17 C427.054688,17.5468777 426.921225,18.0384093 426.654297,18.4746094 C426.387368,18.9108095 426.006513,19.2558581 425.511719,19.5097656 C425.016925,19.7636731 424.450524,19.890625 423.8125,19.890625 C422.953121,19.890625 422.266279,19.5976592 421.751953,19.0117188 C421.237628,18.4257783 420.980469,17.6901086 420.980469,16.8046875 C420.980469,15.4244723 421.722649,14.3046918 423.207031,13.4453125 C424.834644,12.5468705 426.865873,12.0976562 429.300781,12.0976562 C432.03517,12.0976562 433.981765,12.6966086 435.140625,13.8945312 C435.700524,14.4544299 436.078124,15.1510375 436.273438,15.984375 C436.468751,16.8177125 436.566406,17.9830654 436.566406,19.4804688 L436.566406,30.359375 C436.566406,31.0104199 436.628255,31.4693997 436.751953,31.7363281 C436.875652,32.0032565 437.093748,32.1367188 437.40625,32.1367188 C437.83594,32.1367188 438.330726,31.9088564 438.890625,31.453125 L439.300781,32.1367188 C438.688799,32.6445338 438.024743,33.0156238 437.308594,33.25 C436.592444,33.4843762 435.733078,33.6015625 434.730469,33.6015625 C433.376295,33.6015625 432.399743,33.3020863 431.800781,32.703125 C431.20182,32.1041637 430.902344,31.3229215 430.902344,30.359375 C430.251299,31.4401096 429.398443,32.2506483 428.34375,32.7910156 C427.289057,33.3313829 426.162766,33.6015625 424.964844,33.6015625 C423.441399,33.6015625 422.220708,33.2011759 421.302734,32.4003906 C420.384761,31.5996054 419.925781,30.4830801 419.925781,29.0507812 C419.925781,27.6575451 420.381506,26.5052129 421.292969,25.59375 C422.204432,24.6822871 423.617178,23.8750035 425.53125,23.171875 C425.739584,23.0937496 426.416661,22.8365907 427.5625,22.4003906 C428.708339,21.9641905 429.535154,21.5182314 430.042969,21.0625 C430.550784,20.6067686 430.804688,20.1054715 430.804688,19.5585938 L430.804688,16.453125 C430.804688,15.3463486 430.541018,14.4739615 430.013672,13.8359375 L430.013672,13.8359375 Z M429.974609,22.0878906 C429.590493,22.3938817 429.040368,22.768227 428.324219,23.2109375 C427.47786,23.7968779 426.813804,24.4576786 426.332031,25.1933594 C425.850258,25.9290401 425.609375,26.8437445 425.609375,27.9375 C425.609375,28.9791719 425.837237,29.7571589 426.292969,30.2714844 C426.7487,30.7858099 427.347653,31.0429688 428.089844,31.0429688 C429.144537,31.0429688 430.049475,30.4960992 430.804688,29.4023438 L430.804688,21.1992188 C430.635416,21.4856785 430.358726,21.7818995 429.974609,22.0878906 L429.974609,22.0878906 Z M473.335938,12.0976562 C474.429693,12.0976562 475.324866,12.2278633 476.021484,12.4882812 C476.718102,12.7486992 477.287758,13.13281 477.730469,13.640625 C478.173179,14.14844 478.492187,14.8059855 478.6875,15.6132812 C478.882813,16.420577 478.980469,17.5012953 478.980469,18.8554688 L478.980469,29.6171875 C478.980469,30.3593787 479.065103,30.9388 479.234375,31.3554688 C479.403647,31.7721375 479.670571,32.0651033 480.035156,32.234375 C480.399741,32.4036467 480.901038,32.4882812 481.539062,32.4882812 L481.539062,33.328125 C478.882799,33.2239578 477.125004,33.171875 476.265625,33.171875 C475.445308,33.171875 473.707045,33.2239578 471.050781,33.328125 L471.050781,32.4882812 C471.597659,32.4882812 472.027342,32.4036467 472.339844,32.234375 C472.652345,32.0651033 472.876952,31.7721375 473.013672,31.3554688 C473.150391,30.9388 473.21875,30.3593787 473.21875,29.6171875 L473.21875,17.1757812 C473.21875,16.0820258 473.039715,15.2552111 472.681641,14.6953125 C472.323566,14.1354139 471.675786,13.8554688 470.738281,13.8554688 C470.009111,13.8554688 469.3418,14.0572896 468.736328,14.4609375 C468.130856,14.8645854 467.652346,15.4212204 467.300781,16.1308594 C466.949217,16.8404983 466.773438,17.6249957 466.773438,18.484375 L466.773438,29.6171875 C466.773438,30.3593787 466.845051,30.9388 466.988281,31.3554688 C467.131511,31.7721375 467.359373,32.0651033 467.671875,32.234375 C467.984377,32.4036467 468.407549,32.4882812 468.941406,32.4882812 L468.941406,33.328125 C466.493477,33.2239578 464.839848,33.171875 463.980469,33.171875 C463.160152,33.171875 461.317723,33.2239578 458.453125,33.328125 L458.453125,32.4882812 C459.091149,32.4882812 459.595701,32.4036467 459.966797,32.234375 C460.337892,32.0651033 460.604817,31.7721375 460.767578,31.3554688 C460.930339,30.9388 461.011719,30.3593787 461.011719,29.6171875 L461.011719,17 C461.011719,15.7630146 460.822919,14.8678413 460.445312,14.3144531 C460.067706,13.7610649 459.403651,13.484375 458.453125,13.484375 L458.453125,12.6445312 C459.299483,12.7226566 460.126298,12.7617188 460.933594,12.7617188 C463.290376,12.7617188 465.236971,12.5794289 466.773438,12.2148438 L466.773438,15.8085938 C467.984381,13.334623 470.171859,12.0976562 473.335938,12.0976562 L473.335938,12.0976562 Z M504.568359,31.0234375 C505.434249,32.3255273 506.66145,32.9765625 508.25,32.9765625 C509.031254,32.9765625 509.698565,32.7389347 510.251953,32.2636719 C510.805341,31.7884091 511.082031,31.0755256 511.082031,30.125 C511.082031,29.3828088 510.916017,28.7187529 510.583984,28.1328125 C510.251951,27.5468721 509.832034,27.0260439 509.324219,26.5703125 C508.816404,26.1145811 508.054693,25.4895873 507.039062,24.6953125 C505.802077,23.6927033 504.874352,22.9049508 504.255859,22.3320312 C503.637367,21.7591117 503.106773,21.07878 502.664062,20.2910156 C502.221352,19.5032513 502,18.6080779 502,17.6054688 C502,16.4596297 502.312497,15.4700562 502.9375,14.6367188 C503.562503,13.8033813 504.402338,13.1718771 505.457031,12.7421875 C506.511724,12.3124979 507.657546,12.0976562 508.894531,12.0976562 C509.910161,12.0976562 510.841142,12.2213529 511.6875,12.46875 C512.533858,12.7161471 513.197914,13.0026025 513.679688,13.328125 C513.940105,13.5104176 514.174478,13.6015625 514.382812,13.6015625 C514.877607,13.6015625 515.190104,13.1132861 515.320312,12.1367188 L516.199219,12.1367188 C516.095052,13.4778713 516.042969,15.8215979 516.042969,19.1679688 L515.164062,19.1679688 C514.929686,17.4231684 514.405603,15.9550841 513.591797,14.7636719 C512.777991,13.5722597 511.596362,12.9765625 510.046875,12.9765625 C509.2526,12.9765625 508.601565,13.2044248 508.09375,13.6601562 C507.585935,14.1158877 507.332031,14.7408814 507.332031,15.5351562 C507.332031,16.4335982 507.631507,17.2083301 508.230469,17.859375 C508.82943,18.5104199 509.552079,19.1354137 510.398438,19.734375 C511.244796,20.3333363 511.863279,20.7825506 512.253906,21.0820312 C513.347662,21.9023479 514.216794,22.6184865 514.861328,23.2304688 C515.505863,23.842451 516.029946,24.5358034 516.433594,25.3105469 C516.837242,26.0852903 517.039062,26.9739533 517.039062,27.9765625 C517.039062,29.1484434 516.697269,30.1835893 516.013672,31.0820312 C515.330075,31.9804732 514.40886,32.6738257 513.25,33.1621094 C512.09114,33.6503931 510.821621,33.8945312 509.441406,33.8945312 C508.022128,33.8945312 506.785162,33.6145861 505.730469,33.0546875 C504.936194,32.6510396 504.3112,32.3710945 503.855469,32.2148438 C503.777343,32.188802 503.71224,32.1757812 503.660156,32.1757812 C503.230467,32.1757812 502.91797,32.6510369 502.722656,33.6015625 L501.84375,33.6015625 C501.947917,32.0781174 502,29.4153836 502,25.6132812 L502.878906,25.6132812 C503.139324,27.9179803 503.70247,29.7213477 504.568359,31.0234375 L504.568359,31.0234375 Z M564.980469,12.7617188 C566.321621,12.7617188 567.337236,12.7226566 568.027344,12.6445312 L568.027344,13.4453125 C567.467445,13.6015633 566.959638,13.9368464 566.503906,14.4511719 C566.048175,14.9654974 565.651043,15.7760361 565.3125,16.8828125 L559.980469,33.40625 C559.550779,33.3671873 559.114586,33.3476562 558.671875,33.3476562 C558.242185,33.3476562 557.812502,33.3671873 557.382812,33.40625 L551.933594,18.5625 L547.5,33.40625 C547.096352,33.3671873 546.666669,33.3476562 546.210938,33.3476562 C545.794269,33.3476562 545.358075,33.3671873 544.902344,33.40625 L538.574219,15.7304688 C538.053383,14.2330654 537.285161,13.484375 536.269531,13.484375 L536.269531,12.6445312 C537.98829,12.800782 539.876292,12.8789062 541.933594,12.8789062 C543.274746,12.8789062 545.01301,12.800782 547.148438,12.6445312 L547.148438,13.484375 C546.562497,13.484375 546.100262,13.5071612 545.761719,13.5527344 C545.423175,13.5983075 545.152996,13.7057283 544.951172,13.875 C544.749348,14.0442717 544.648438,14.3046857 544.648438,14.65625 C544.648438,14.916668 544.720051,15.2747373 544.863281,15.7304688 L548.496094,27.0390625 L552.832031,12.6054688 C553.170575,12.6184896 553.658851,12.625 554.296875,12.625 C554.94792,12.625 555.429686,12.6184896 555.742188,12.6054688 L560.917969,27.8789062 L563.457031,19.8515625 C563.821616,18.6796816 564.003906,17.6640668 564.003906,16.8046875 C564.003906,14.7604064 562.95574,13.640626 560.859375,13.4453125 L560.859375,12.6445312 C562.109381,12.7226566 563.483065,12.7617188 564.980469,12.7617188 L564.980469,12.7617188 Z M603.869141,14.7148438 C605.607431,16.4596441 606.476562,19.2265436 606.476562,23.015625 C606.476562,26.7916855 605.607431,29.5488194 603.869141,31.2871094 C602.130851,33.0253993 599.738296,33.8945312 596.691406,33.8945312 C593.644516,33.8945312 591.248707,33.0253993 589.503906,31.2871094 C587.759106,29.5488194 586.886719,26.7916855 586.886719,23.015625 C586.886719,19.2395645 587.759106,16.4759202 589.503906,14.7246094 C591.248707,12.9732985 593.644516,12.0976562 596.691406,12.0976562 C599.738296,12.0976562 602.130851,12.9700434 603.869141,14.7148438 L603.869141,14.7148438 Z M593.947266,15.3789062 C593.263668,17.0455812 592.921875,19.5911287 592.921875,23.015625 C592.921875,26.4271004 593.263668,28.9596271 593.947266,30.6132812 C594.630863,32.2669354 595.545567,33.09375 596.691406,33.09375 C597.850266,33.09375 598.764971,32.2701905 599.435547,30.6230469 C600.106123,28.9759032 600.441406,26.4401213 600.441406,23.015625 C600.441406,19.5781078 600.106123,17.0293052 599.435547,15.3691406 C598.764971,13.7089761 597.850266,12.8789062 596.691406,12.8789062 C595.545567,12.8789062 594.630863,13.7122313 593.947266,15.3789062 L593.947266,15.3789062 Z M637.474609,13.1621094 C638.431645,12.4524704 639.515619,12.0976562 640.726562,12.0976562 C641.533858,12.0976562 642.210935,12.2734357 642.757812,12.625 C643.30469,12.9765643 643.708332,13.4290337 643.96875,13.9824219 C644.229168,14.5358101 644.359375,15.1315072 644.359375,15.7695312 C644.359375,16.7591195 644.07292,17.5664031 643.5,18.1914062 C642.92708,18.8164094 642.17188,19.1289062 641.234375,19.1289062 C640.322912,19.1289062 639.603518,18.8977888 639.076172,18.4355469 C638.548825,17.973305 638.285156,17.3515664 638.285156,16.5703125 C638.285156,15.2942645 638.871088,14.2526082 640.042969,13.4453125 C639.873697,13.4062498 639.710938,13.3867188 639.554688,13.3867188 C639.372395,13.3867188 639.164064,13.4192705 638.929688,13.484375 C638.252601,13.5885422 637.634117,13.9108046 637.074219,14.4511719 C636.51432,14.9915392 636.074871,15.6393191 635.755859,16.3945312 C635.436847,17.1497434 635.277344,17.8854131 635.277344,18.6015625 L635.277344,29.2070312 C635.277344,30.4440166 635.57682,31.3001278 636.175781,31.7753906 C636.774743,32.2506534 637.731764,32.4882812 639.046875,32.4882812 L639.046875,33.328125 C635.713525,33.2239578 633.59115,33.171875 632.679688,33.171875 C631.833329,33.171875 629.925796,33.2239578 626.957031,33.328125 L626.957031,32.4882812 C627.595055,32.4882812 628.099608,32.4036467 628.470703,32.234375 C628.841799,32.0651033 629.108723,31.7721375 629.271484,31.3554688 C629.434246,30.9388 629.515625,30.3593787 629.515625,29.6171875 L629.515625,17 C629.515625,15.7630146 629.326825,14.8678413 628.949219,14.3144531 C628.571613,13.7610649 627.907557,13.484375 626.957031,13.484375 L626.957031,12.6445312 C627.80339,12.7226566 628.630204,12.7617188 629.4375,12.7617188 C631.794283,12.7617188 633.740878,12.5794289 635.277344,12.2148438 L635.277344,15.9257812 C635.785159,14.7929631 636.517573,13.8717483 637.474609,13.1621094 L637.474609,13.1621094 Z M671.001953,31.3554688 C671.164714,31.7721375 671.431639,32.0651033 671.802734,32.234375 C672.17383,32.4036467 672.678382,32.4882812 673.316406,32.4882812 L673.316406,33.328125 C670.555976,33.2239578 668.772139,33.171875 667.964844,33.171875 C667.04036,33.171875 665.19793,33.2239578 662.4375,33.328125 L662.4375,32.4882812 C663.075524,32.4882812 663.576821,32.4036467 663.941406,32.234375 C664.305991,32.0651033 664.572916,31.7721375 664.742188,31.3554688 C664.911459,30.9388 664.996094,30.3593787 664.996094,29.6171875 L664.996094,6.8046875 C664.996094,5.56770215 664.804038,4.67252881 664.419922,4.11914062 C664.035805,3.56575244 663.375005,3.2890625 662.4375,3.2890625 L662.4375,2.44921875 C663.283858,2.52734414 664.110673,2.56640625 664.917969,2.56640625 C667.26173,2.56640625 669.208326,2.37760605 670.757812,2 L670.757812,29.6171875 C670.757812,30.3593787 670.839192,30.9388 671.001953,31.3554688 L671.001953,31.3554688 Z M713.298828,31.6191406 C713.669924,32.1725288 714.337235,32.4492188 715.300781,32.4492188 L715.300781,33.2890625 C714.454423,33.2109371 713.627608,33.171875 712.820312,33.171875 C710.46353,33.171875 708.516935,33.3541648 706.980469,33.71875 L706.980469,30.28125 C706.082027,32.6901162 704.350273,33.8945312 701.785156,33.8945312 C700.157544,33.8945312 698.728522,33.500655 697.498047,32.7128906 C696.267572,31.9251263 695.31055,30.7076905 694.626953,29.0605469 C693.943356,27.4134032 693.608073,25.352877 693.621094,22.8789062 C693.608073,20.5351445 693.982418,18.5559977 694.744141,16.9414062 C695.505863,15.3268148 696.56054,14.1158895 697.908203,13.3085938 C699.255866,12.501298 700.802075,12.0976562 702.546875,12.0976562 C704.513031,12.0976562 705.99088,12.5989533 706.980469,13.6015625 L706.980469,6.8046875 C706.980469,5.56770215 706.788413,4.67252881 706.404297,4.11914062 C706.02018,3.56575244 705.35938,3.2890625 704.421875,3.2890625 L704.421875,2.44921875 C705.268233,2.52734414 706.095048,2.56640625 706.902344,2.56640625 C709.246105,2.56640625 711.192701,2.37760605 712.742188,2 L712.742188,28.9335938 C712.742188,30.1705791 712.927733,31.0657524 713.298828,31.6191406 L713.298828,31.6191406 Z M704.050781,13.25 C702.644524,13.25 701.557296,14.0637939 700.789062,15.6914062 C700.020829,17.3190186 699.643229,19.7473797 699.65625,22.9765625 C699.617187,29.1094057 700.873685,32.1757812 703.425781,32.1757812 C703.998701,32.1757812 704.53906,32.0325535 705.046875,31.7460938 C705.55469,31.459634 705.981118,31.0462267 706.326172,30.5058594 C706.671226,29.9654921 706.889322,29.3372432 706.980469,28.6210938 L706.980469,14.6171875 C706.303382,13.7057246 705.326829,13.25 704.050781,13.25 L704.050781,13.25 Z" id="transworld" fill="#C5B358"></path>
    </g>
</svg>
